<svg width="32" height="32" viewBox="0 0 32 32" fill="none" xmlns="http://www.w3.org/2000/svg">
<path d="M27.1451 23.6691C26.7361 24.6309 26.2309 25.5479 25.6371 26.4061C24.844 27.5489 24.1927 28.3386 23.6935 28.7781C22.9181 29.4963 22.0851 29.8658 21.1945 29.8866C20.5565 29.8866 19.7855 29.7034 18.8875 29.3309C17.9866 28.9599 17.1595 28.7781 16.4019 28.7781C15.6087 28.7781 14.758 28.9599 13.8467 29.3309C12.937 29.7034 12.2014 29.8985 11.6387 29.9164C10.7865 29.9537 9.93434 29.5752 9.0851 28.7781C8.54306 28.3013 7.86515 27.4819 7.05135 26.3227C6.17996 25.0875 5.46365 23.6497 4.90241 22.0153C4.3013 20.2467 4 18.5363 4 16.8794C4 14.9827 4.40616 13.3453 5.21995 11.9746C5.83546 10.898 6.71542 9.99954 7.77505 9.36567C8.81994 8.73344 10.0127 8.39302 11.2311 8.37933C11.9105 8.37933 12.8011 8.5909 13.9043 9.00808C15.0076 9.42527 15.7166 9.63684 16.0252 9.63684C16.2586 9.63684 17.0428 9.38802 18.378 8.89485C19.6378 8.43744 20.7012 8.24821 21.5726 8.32271C23.9357 8.51491 25.7095 9.45358 26.8896 11.1461C24.7776 12.4379 23.7334 14.2452 23.7541 16.5651C23.7718 18.3724 24.4231 19.8757 25.6992 21.0692C26.2633 21.6138 26.9216 22.0496 27.6414 22.355C27.4848 22.8124 27.3194 23.2489 27.1451 23.6691V23.6691ZM21.7292 2.16777C21.7292 3.58321 21.2152 4.90628 20.1946 6.12952C18.9599 7.5837 17.4682 8.42552 15.851 8.29291C15.8298 8.11492 15.8194 7.9358 15.8199 7.75653C15.8199 6.39622 16.4048 4.94204 17.449 3.75157C17.9689 3.14964 18.6306 2.64753 19.4325 2.24822C20.233 1.85488 20.9892 1.63735 21.7011 1.6001C21.7203 1.79081 21.7292 1.98003 21.7292 2.16777V2.16777Z" fill="#0071E4"/>
</svg>
