<svg width="768" height="48" viewBox="0 0 768 48" fill="none" xmlns="http://www.w3.org/2000/svg">
<g filter="url(#filter0_d_208_8594)">
<rect width="768" height="40" fill="white"/>
<path d="M51.1451 27.6691C50.7361 28.6309 50.2309 29.5479 49.6371 30.4061C48.844 31.5489 48.1927 32.3386 47.6935 32.7781C46.9181 33.4963 46.0851 33.8658 45.1945 33.8866C44.5565 33.8866 43.7855 33.7034 42.8875 33.3309C41.9866 32.9599 41.1595 32.7781 40.4019 32.7781C39.6087 32.7781 38.758 32.9599 37.8467 33.3309C36.937 33.7034 36.2014 33.8985 35.6387 33.9164C34.7865 33.9537 33.9343 33.5752 33.0851 32.7781C32.5431 32.3013 31.8651 31.4819 31.0514 30.3227C30.18 29.0875 29.4636 27.6497 28.9024 26.0153C28.3013 24.2467 28 22.5363 28 20.8794C28 18.9827 28.4062 17.3453 29.22 15.9746C29.8355 14.898 30.7154 13.9995 31.7751 13.3657C32.8199 12.7334 34.0127 12.393 35.2311 12.3793C35.9105 12.3793 36.8011 12.5909 37.9043 13.0081C39.0076 13.4253 39.7166 13.6368 40.0252 13.6368C40.2586 13.6368 41.0428 13.388 42.378 12.8948C43.6378 12.4374 44.7012 12.2482 45.5726 12.3227C47.9357 12.5149 49.7095 13.4536 50.8896 15.1461C48.7776 16.4379 47.7334 18.2452 47.7541 20.5651C47.7718 22.3724 48.4231 23.8757 49.6992 25.0692C50.2633 25.6138 50.9216 26.0496 51.6414 26.355C51.4848 26.8124 51.3194 27.2489 51.1451 27.6691ZM45.7292 6.16777C45.7292 7.58321 45.2152 8.90628 44.1946 10.1295C42.9599 11.5837 41.4682 12.4255 39.851 12.2929C39.8298 12.1149 39.8194 11.9358 39.8199 11.7565C39.8199 10.3962 40.4048 8.94203 41.449 7.75157C41.9689 7.14964 42.6306 6.64753 43.4325 6.24822C44.233 5.85488 44.9892 5.63735 45.7011 5.6001C45.7203 5.79081 45.7292 5.98003 45.7292 6.16777Z" fill="#0071E4"/>
<path d="M724 14H740V16H724V14ZM724 19H740V21H724V19ZM724 24H740V26H724V24Z" fill="#100E0E"/>
<path d="M109 29L104.514 24.506M107 18.5C107 20.7543 106.104 22.9163 104.51 24.5104C102.916 26.1045 100.754 27 98.5 27C96.2457 27 94.0837 26.1045 92.4896 24.5104C90.8955 22.9163 90 20.7543 90 18.5C90 16.2457 90.8955 14.0837 92.4896 12.4896C94.0837 10.8955 96.2457 10 98.5 10C100.754 10 102.916 10.8955 104.51 12.4896C106.104 14.0837 107 16.2457 107 18.5V18.5Z" stroke="#100E0E" stroke-width="2" stroke-linecap="round"/>
<path d="M130.008 26V14.7266H121.172V26H122.586V16.0078H128.617V26H130.008ZM135.516 26.1406C137.758 26.1406 139.273 24.5234 139.273 21.9375C139.273 19.3438 137.758 17.7344 135.516 17.7344C133.266 17.7344 131.75 19.3438 131.75 21.9375C131.75 24.5234 133.266 26.1406 135.516 26.1406ZM135.516 24.9453C134.078 24.9453 133.133 23.8516 133.133 21.9375C133.133 20.0234 134.078 18.9297 135.516 18.9297C136.953 18.9297 137.891 20.0234 137.891 21.9375C137.891 23.8516 136.953 24.9453 135.516 24.9453ZM142.125 26L146.188 19.9531H146.25V26H147.594V17.875H146.25L142.188 23.9219H142.125V17.875H140.781V26H142.125ZM156.227 20.375C155.984 18.9922 154.789 17.7344 152.828 17.7344C150.578 17.7344 149.109 19.4062 149.109 21.9375C149.109 24.5234 150.586 26.1406 152.844 26.1406C154.672 26.1406 155.977 25.0547 156.242 23.5156H154.898C154.641 24.4141 153.93 24.9453 152.852 24.9453C151.438 24.9453 150.492 23.7969 150.492 21.9375C150.492 20.125 151.422 18.9297 152.836 18.9297C153.984 18.9297 154.648 19.5938 154.883 20.375H156.227ZM160.414 21.7188L164.211 17.875H162.531L159.062 21.4688H159V17.875H157.656V26H159V22.0938H159.062L162.57 26H164.32L160.414 21.7188ZM174.008 26H175.359V17.875H168.734V26H170.078V18.9922H174.008V26ZM180.641 26.1406C182.883 26.1406 184.398 24.5234 184.398 21.9375C184.398 19.3438 182.883 17.7344 180.641 17.7344C178.391 17.7344 176.875 19.3438 176.875 21.9375C176.875 24.5234 178.391 26.1406 180.641 26.1406ZM180.641 24.9453C179.203 24.9453 178.258 23.8516 178.258 21.9375C178.258 20.0234 179.203 18.9297 180.641 18.9297C182.078 18.9297 183.016 20.0234 183.016 21.9375C183.016 23.8516 182.078 24.9453 180.641 24.9453ZM191.945 21.7188L195.742 17.875H194.062L190.594 21.4688H190.531V17.875H189.188V26H190.531V22.0938H190.594L194.102 26H195.852L191.945 21.7188ZM199.438 24.9844C198.461 24.9844 197.812 24.4766 197.812 23.7031C197.812 22.9375 198.438 22.4531 199.531 22.3828L201.703 22.25V22.9141C201.703 24.0859 200.719 24.9844 199.438 24.9844ZM199.133 26.1406C200.227 26.1406 201.258 25.5312 201.742 24.6016H201.773V26H203.062V20.3828C203.062 18.7656 201.859 17.7344 199.953 17.7344C198.031 17.7344 196.828 18.8125 196.734 20.2188H198.047C198.219 19.4219 198.875 18.9297 199.922 18.9297C201.047 18.9297 201.703 19.5234 201.703 20.5156V21.1953L199.375 21.3281C197.5 21.4375 196.43 22.3125 196.43 23.7031C196.43 25.1641 197.516 26.1406 199.133 26.1406ZM210.727 17.875H204.133V18.9922H206.758V26H208.102V18.9922H210.727V17.875ZM214.359 24.9844C213.383 24.9844 212.734 24.4766 212.734 23.7031C212.734 22.9375 213.359 22.4531 214.453 22.3828L216.625 22.25V22.9141C216.625 24.0859 215.641 24.9844 214.359 24.9844ZM214.055 26.1406C215.148 26.1406 216.18 25.5312 216.664 24.6016H216.695V26H217.984V20.3828C217.984 18.7656 216.781 17.7344 214.875 17.7344C212.953 17.7344 211.75 18.8125 211.656 20.2188H212.969C213.141 19.4219 213.797 18.9297 214.844 18.9297C215.969 18.9297 216.625 19.5234 216.625 20.5156V21.1953L214.297 21.3281C212.422 21.4375 211.352 22.3125 211.352 23.7031C211.352 25.1641 212.438 26.1406 214.055 26.1406ZM222.031 22.4141L222.281 18.9922H225.047V26H226.391V17.875H221.07L220.758 22.3828C220.656 23.875 220.352 24.8203 219.547 24.8203C219.352 24.8203 219.203 24.7812 219.133 24.7578V25.9844C219.227 26.0234 219.383 26.0703 219.617 26.0703C221.328 26.0703 221.867 24.6562 222.031 22.4141ZM231.688 26.1406C233.93 26.1406 235.445 24.5234 235.445 21.9375C235.445 19.3438 233.93 17.7344 231.688 17.7344C229.438 17.7344 227.922 19.3438 227.922 21.9375C227.922 24.5234 229.438 26.1406 231.688 26.1406ZM231.688 24.9453C230.25 24.9453 229.305 23.8516 229.305 21.9375C229.305 20.0234 230.25 18.9297 231.688 18.9297C233.125 18.9297 234.062 20.0234 234.062 21.9375C234.062 23.8516 233.125 24.9453 231.688 24.9453ZM242.18 18.9922V17.875H236.953V26H238.297V18.9922H242.18ZM244.336 29.0391C245.805 29.0391 246.477 28.4688 247.172 26.5703L250.367 17.875H248.938L246.688 24.6406H246.664L244.414 17.875H242.961L245.961 26.0078L245.773 26.5781C245.461 27.5234 245.039 27.8906 244.281 27.8906C244.109 27.8906 243.898 27.8828 243.75 27.8516V28.9922C243.898 29.0234 244.172 29.0391 244.336 29.0391ZM260.805 17.875H254.211V18.9922H256.836V26H258.18V18.9922H260.805V17.875ZM265.281 26.1406C267.523 26.1406 269.039 24.5234 269.039 21.9375C269.039 19.3438 267.523 17.7344 265.281 17.7344C263.031 17.7344 261.516 19.3438 261.516 21.9375C261.516 24.5234 263.031 26.1406 265.281 26.1406ZM265.281 24.9453C263.844 24.9453 262.898 23.8516 262.898 21.9375C262.898 20.0234 263.844 18.9297 265.281 18.9297C266.719 18.9297 267.656 20.0234 267.656 21.9375C267.656 23.8516 266.719 24.9453 265.281 24.9453ZM273.836 18.9766C274.688 18.9766 275.148 19.375 275.148 20.0938C275.148 20.875 274.656 21.25 273.633 21.25H271.891V18.9766H273.836ZM273.742 22.3438C274.93 22.3438 275.5 22.7656 275.5 23.6328C275.5 24.4531 274.969 24.8984 273.984 24.8984H271.891V22.3438H273.742ZM270.547 26H274.047C275.773 26 276.836 25.1016 276.836 23.6641C276.836 22.6484 276.164 21.9062 275.141 21.7656V21.7031C275.891 21.5469 276.477 20.7812 276.477 19.9531C276.477 18.6641 275.547 17.875 274.023 17.875H270.547V26ZM281.078 24.9844C280.102 24.9844 279.453 24.4766 279.453 23.7031C279.453 22.9375 280.078 22.4531 281.172 22.3828L283.344 22.25V22.9141C283.344 24.0859 282.359 24.9844 281.078 24.9844ZM280.773 26.1406C281.867 26.1406 282.898 25.5312 283.383 24.6016H283.414V26H284.703V20.3828C284.703 18.7656 283.5 17.7344 281.594 17.7344C279.672 17.7344 278.469 18.8125 278.375 20.2188H279.688C279.859 19.4219 280.516 18.9297 281.562 18.9297C282.688 18.9297 283.344 19.5234 283.344 20.5156V21.1953L281.016 21.3281C279.141 21.4375 278.07 22.3125 278.07 23.7031C278.07 25.1641 279.156 26.1406 280.773 26.1406ZM290.531 17.7344C289.352 17.7344 288.406 18.3359 287.906 19.25H287.875V17.875H286.586V28.7109H287.945V24.6797H287.977C288.461 25.5703 289.398 26.1406 290.562 26.1406C292.609 26.1406 294.008 24.4844 294.008 21.9375C294.008 19.3906 292.602 17.7344 290.531 17.7344ZM290.266 24.9453C288.875 24.9453 287.938 23.75 287.938 21.9375C287.938 20.1328 288.875 18.9297 290.266 18.9297C291.711 18.9297 292.617 20.1016 292.617 21.9375C292.617 23.7812 291.711 24.9453 290.266 24.9453ZM298.891 26.1406C301.133 26.1406 302.648 24.5234 302.648 21.9375C302.648 19.3438 301.133 17.7344 298.891 17.7344C296.641 17.7344 295.125 19.3438 295.125 21.9375C295.125 24.5234 296.641 26.1406 298.891 26.1406ZM298.891 24.9453C297.453 24.9453 296.508 23.8516 296.508 21.9375C296.508 20.0234 297.453 18.9297 298.891 18.9297C300.328 18.9297 301.266 20.0234 301.266 21.9375C301.266 23.8516 300.328 24.9453 298.891 24.9453ZM307.445 18.9766C308.297 18.9766 308.758 19.375 308.758 20.0938C308.758 20.875 308.266 21.25 307.242 21.25H305.5V18.9766H307.445ZM307.352 22.3438C308.539 22.3438 309.109 22.7656 309.109 23.6328C309.109 24.4531 308.578 24.8984 307.594 24.8984H305.5V22.3438H307.352ZM304.156 26H307.656C309.383 26 310.445 25.1016 310.445 23.6641C310.445 22.6484 309.773 21.9062 308.75 21.7656V21.7031C309.5 21.5469 310.086 20.7812 310.086 19.9531C310.086 18.6641 309.156 17.875 307.633 17.875H304.156V26Z" fill="#B7B7B7"/>
<path d="M540.134 18.5359L541.745 17.0599C542.186 16.6555 542.496 16.1287 542.635 15.5471C542.773 14.9656 542.736 14.3557 542.525 13.7959L541.838 11.9614C541.582 11.2765 541.074 10.7153 540.418 10.392C539.762 10.0687 539.007 10.0077 538.307 10.2214C535.733 11.0089 533.755 13.4014 534.364 16.2424C534.764 18.1114 535.531 20.4574 536.983 22.9534C538.438 25.4554 540.1 27.3034 541.525 28.6024C543.676 30.5599 546.751 30.0709 548.729 28.2259C549.26 27.7314 549.582 27.0533 549.629 26.3297C549.677 25.6062 549.447 24.8917 548.986 24.3319L547.726 22.8019C547.346 22.3392 546.836 22.0008 546.262 21.8303C545.688 21.6597 545.076 21.6648 544.505 21.8449L542.423 22.5004C541.886 21.9455 541.415 21.3298 541.019 20.6659C540.638 19.9944 540.341 19.2785 540.134 18.5344V18.5359Z" fill="#B7B7B7"/>
<path d="M563.469 22.1875H566.805V20.9219H563.469V17.4297H562.203V20.9219H558.867V22.1875H562.203V25.7656H563.469V22.1875ZM569.25 26H570.727L575.742 16.0312V14.7266H568.281V15.9766H574.352V16.0078L569.25 26ZM584.508 26.1875C586.898 26.1875 588.602 24.8438 588.602 22.9531C588.602 21.5547 587.633 20.3984 586.172 20.0547V20.0234C587.398 19.6328 588.141 18.6797 588.141 17.5078C588.141 15.7891 586.617 14.5391 584.508 14.5391C582.414 14.5391 580.867 15.7969 580.867 17.5C580.867 18.6875 581.625 19.6484 582.844 20.0234V20.0547C581.391 20.3906 580.422 21.5469 580.422 22.9531C580.422 24.8359 582.125 26.1875 584.508 26.1875ZM584.508 24.9609C582.961 24.9609 581.852 24.0781 581.852 22.8516C581.852 21.6172 582.961 20.7344 584.508 20.7344C586.062 20.7344 587.164 21.6094 587.164 22.8516C587.164 24.0781 586.062 24.9609 584.508 24.9609ZM584.508 19.5C583.188 19.5 582.266 18.7266 582.266 17.6328C582.266 16.5312 583.188 15.75 584.508 15.75C585.828 15.75 586.75 16.5234 586.75 17.6328C586.75 18.7266 585.82 19.5 584.508 19.5ZM593.102 26H594.461V14.7266H593.086L590.086 16.8828V18.3672L593.07 16.2188H593.102V26ZM597.25 17.9766V17.9844H598.609V17.9766C598.609 16.7188 599.609 15.7656 600.93 15.7656C602.172 15.7656 603.164 16.6328 603.164 17.7188C603.164 18.6562 602.805 19.2578 601.289 20.8516L597.32 25.0312V26H604.758V24.75H599.266V24.7188L602.117 21.7734C604 19.8281 604.57 18.8906 604.57 17.6328C604.57 15.9062 602.984 14.5391 600.969 14.5391C598.844 14.5391 597.25 16.0078 597.25 17.9766ZM613.539 26.1875C615.891 26.1875 617.555 24.6016 617.555 22.3359C617.555 20.1484 615.992 18.5625 613.828 18.5625C612.75 18.5625 611.812 18.9688 611.305 19.6484H611.273L611.617 15.9766H616.914V14.7266H610.461L609.844 21.0391H611.164C611.625 20.25 612.523 19.7734 613.578 19.7734C615.078 19.7734 616.148 20.8594 616.148 22.375C616.148 23.8906 615.086 24.9531 613.555 24.9531C612.203 24.9531 611.18 24.125 611.055 22.9219H609.672C609.789 24.8438 611.383 26.1875 613.539 26.1875ZM623.102 26.1953C625.414 26.1953 627.094 24.5703 627.094 22.3438C627.094 20.2031 625.5 18.6172 623.352 18.6172C621.953 18.6172 620.711 19.3438 620.203 20.4453H620.18C620.227 17.4453 621.297 15.7734 623.18 15.7734C624.297 15.7734 625.203 16.4297 625.508 17.4531H626.938C626.578 15.6797 625.109 14.5312 623.195 14.5312C620.438 14.5312 618.82 16.7578 618.82 20.5547C618.82 21.7734 619 22.7891 619.375 23.6562C620.07 25.2812 621.414 26.1953 623.102 26.1953ZM623.086 24.9453C621.641 24.9453 620.516 23.7969 620.516 22.3516C620.516 20.9141 621.617 19.8516 623.109 19.8516C624.602 19.8516 625.664 20.9141 625.664 22.3906C625.664 23.8125 624.523 24.9453 623.086 24.9453ZM631.477 26H632.836V14.7266H631.461L628.461 16.8828V18.3672L631.445 16.2188H631.477V26ZM642.562 26.1875C645.32 26.1875 646.93 23.9688 646.93 20.1719C646.93 18.9453 646.75 17.9297 646.375 17.0625C645.688 15.4453 644.344 14.5312 642.648 14.5312C640.336 14.5312 638.656 16.1562 638.656 18.3828C638.656 20.5234 640.25 22.1094 642.398 22.1094C643.836 22.1094 645.07 21.3828 645.547 20.2656C645.555 20.2656 645.555 20.2656 645.562 20.2656H645.57C645.531 23.2578 644.453 24.9609 642.578 24.9609C641.461 24.9609 640.547 24.2891 640.25 23.2656H638.82C639.164 25.0312 640.641 26.1875 642.562 26.1875ZM642.641 20.875C641.164 20.875 640.078 19.8047 640.078 18.3359C640.078 16.9219 641.219 15.7969 642.664 15.7969C644.117 15.7969 645.242 16.9297 645.242 18.375C645.242 19.8125 644.133 20.875 642.641 20.875ZM652.633 26.1953C654.945 26.1953 656.625 24.5703 656.625 22.3438C656.625 20.2031 655.031 18.6172 652.883 18.6172C651.484 18.6172 650.242 19.3438 649.734 20.4453H649.711C649.758 17.4453 650.828 15.7734 652.711 15.7734C653.828 15.7734 654.734 16.4297 655.039 17.4531H656.469C656.109 15.6797 654.641 14.5312 652.727 14.5312C649.969 14.5312 648.352 16.7578 648.352 20.5547C648.352 21.7734 648.531 22.7891 648.906 23.6562C649.602 25.2812 650.945 26.1953 652.633 26.1953ZM652.617 24.9453C651.172 24.9453 650.047 23.7969 650.047 22.3516C650.047 20.9141 651.148 19.8516 652.641 19.8516C654.133 19.8516 655.195 20.9141 655.195 22.3906C655.195 23.8125 654.055 24.9453 652.617 24.9453ZM665.492 26.1953C667.805 26.1953 669.484 24.5703 669.484 22.3438C669.484 20.2031 667.891 18.6172 665.742 18.6172C664.344 18.6172 663.102 19.3438 662.594 20.4453H662.57C662.617 17.4453 663.688 15.7734 665.57 15.7734C666.688 15.7734 667.594 16.4297 667.898 17.4531H669.328C668.969 15.6797 667.5 14.5312 665.586 14.5312C662.828 14.5312 661.211 16.7578 661.211 20.5547C661.211 21.7734 661.391 22.7891 661.766 23.6562C662.461 25.2812 663.805 26.1953 665.492 26.1953ZM665.477 24.9453C664.031 24.9453 662.906 23.7969 662.906 22.3516C662.906 20.9141 664.008 19.8516 665.5 19.8516C666.992 19.8516 668.055 20.9141 668.055 22.3906C668.055 23.8125 666.914 24.9453 665.477 24.9453ZM670.922 17.9766V17.9844H672.281V17.9766C672.281 16.7188 673.281 15.7656 674.602 15.7656C675.844 15.7656 676.836 16.6328 676.836 17.7188C676.836 18.6562 676.477 19.2578 674.961 20.8516L670.992 25.0312V26H678.43V24.75H672.938V24.7188L675.789 21.7734C677.672 19.8281 678.242 18.8906 678.242 17.6328C678.242 15.9062 676.656 14.5391 674.641 14.5391C672.516 14.5391 670.922 16.0078 670.922 17.9766Z" fill="#100E0E"/>
</g>
<defs>
<filter id="filter0_d_208_8594" x="-4" y="0" width="776" height="48" filterUnits="userSpaceOnUse" color-interpolation-filters="sRGB">
<feFlood flood-opacity="0" result="BackgroundImageFix"/>
<feColorMatrix in="SourceAlpha" type="matrix" values="0 0 0 0 0 0 0 0 0 0 0 0 0 0 0 0 0 0 127 0" result="hardAlpha"/>
<feOffset dy="4"/>
<feGaussianBlur stdDeviation="2"/>
<feComposite in2="hardAlpha" operator="out"/>
<feColorMatrix type="matrix" values="0 0 0 0 0 0 0 0 0 0 0 0 0 0 0 0 0 0 0.05 0"/>
<feBlend mode="normal" in2="BackgroundImageFix" result="effect1_dropShadow_208_8594"/>
<feBlend mode="normal" in="SourceGraphic" in2="effect1_dropShadow_208_8594" result="shape"/>
</filter>
</defs>
</svg>
